<svg xmlns="http://www.w3.org/2000/svg" viewBox="0 0 900 600" xml:space="preserve"><path fill="#B92EA7" d="M648 601H1V1h900v600H648m3.468-110.068c2.666-.004 5.335.075 7.997-.027 9.44-.363 15.49-6.13 16.32-15.531.132-1.49.097-2.997.097-4.496.004-114.308.005-228.617-.004-342.926 0-1.83.018-3.676-.195-5.488-1.078-9.186-7.18-14.619-16.503-14.62-138.803-.012-277.607-.012-416.41.001-9.464.001-15.66 5.718-16.548 15.151-.14 1.489-.104 2.996-.104 4.495-.004 114.475-.006 228.95.016 343.426 0 2.322.113 4.672.476 6.961 1.02 6.427 4.91 10.515 11.066 12.158 2.84.758 5.918.862 8.889.862 134.637.04 269.275.034 404.903.034z"/><path fill="#010001" d="M650.973 490.932c-135.133 0-269.77.006-404.408-.034-2.97 0-6.049-.104-8.89-.862-6.156-1.643-10.045-5.731-11.065-12.158-.363-2.289-.476-4.639-.476-6.96-.022-114.476-.02-228.952-.016-343.427 0-1.499-.036-3.006.104-4.495.888-9.433 7.084-15.15 16.548-15.15 138.803-.014 277.607-.014 416.41-.002 9.323.001 15.425 5.434 16.503 14.62.213 1.812.195 3.658.195 5.488.009 114.309.008 228.618.004 342.926 0 1.5.035 3.006-.097 4.496-.83 9.4-6.88 15.168-16.32 15.531-2.662.102-5.331.023-8.492.027M270.81 414.311l-12.346 11.318.958 1.251h389.502c-1.45-1.874-2.398-3.186-3.435-4.424-38.521-45.977-77.057-91.941-115.574-137.921-9.342-11.152-20.006-11.151-29.273-.052a59213.89 59213.89 0 0 1-74.402 88.946c-8.82 10.524-18.31 10.845-28.087 1.1-9.796-9.766-19.578-19.545-29.383-29.301-10.258-10.205-18.172-10.247-28.325-.156-23.05 22.909-46.09 45.825-69.635 69.239m133.513-144.487c20.322-20.727 19.53-51.446-1.82-70.547-14.714-13.165-36.707-15.726-54.558-6.354-17.102 8.98-28.045 29.168-25.467 47.286 2.74 19.249 12.838 33.206 31.169 39.982 18.422 6.81 35.369 3.236 50.676-10.367z"/><path fill="#B82EA6" d="M271.061 414.06c23.295-23.163 46.336-46.08 69.385-68.988 10.153-10.09 18.067-10.05 28.325.156 9.805 9.756 19.587 19.535 29.383 29.3 9.776 9.746 19.267 9.425 28.087-1.099a59213.89 59213.89 0 0 0 74.402-88.946c9.267-11.1 19.93-11.1 29.273.052 38.517 45.98 77.053 91.944 115.574 137.921 1.037 1.238 1.984 2.55 3.435 4.424H259.423l-.958-1.25c4.116-3.774 8.231-7.546 12.596-11.57z"/><path fill="#B72EA6" d="M404.06 270.064c-15.043 13.363-31.99 16.936-50.412 10.127-18.331-6.776-28.43-20.733-31.169-39.982-2.578-18.118 8.365-38.306 25.467-47.286 17.851-9.372 39.844-6.81 54.559 6.354 21.348 19.1 22.14 49.82 1.556 70.787z"/></svg>