<svg xmlns="http://www.w3.org/2000/svg" viewBox="0 0 900 600" xml:space="preserve"><path fill="#29735F" d="M543 601H1V1h900v600H543m19.5-540.038H371.505c-55.832 0-111.663.04-167.495-.033-9.707-.012-19.01 1.633-27.39 6.524-17.164 10.017-25.521 25.228-25.522 45.063-.003 108.498-.004 216.995-.003 325.492 0 17-.147 34.001.073 50.998.172 13.229 5.035 24.652 14.356 34.143 10.868 11.065 24.282 14.96 39.464 14.952 164.33-.085 328.658-.053 492.988-.056 2.166 0 4.343.077 6.497-.102 20.32-1.691 35.107-11.397 43.664-30.166 3.79-8.312 3.723-17.057 3.715-25.956-.103-121.83-.003-243.66-.223-365.49-.014-7.86-1.025-16.152-3.66-23.494-7.145-19.908-25.421-31.778-47.473-31.83-45.665-.11-91.33-.04-137.996-.045z"/><path fill="#5C3052" d="M563 60.962c46.165.004 91.831-.065 137.496.044 22.052.053 40.328 11.923 47.473 31.831 2.635 7.342 3.646 15.633 3.66 23.494.22 121.83.12 243.66.223 365.49.008 8.899.074 17.644-3.715 25.956-8.557 18.77-23.344 28.475-43.664 30.166-2.154.179-4.331.102-6.497.102-164.33.003-328.659-.029-492.988.056-15.182.008-28.596-3.887-39.464-14.952-9.321-9.49-14.184-20.914-14.356-34.143-.22-16.997-.073-33.999-.073-50.998 0-108.497 0-216.994.003-325.492 0-19.835 8.358-35.046 25.521-45.063 8.382-4.89 17.684-6.536 27.39-6.524 55.833.073 111.664.034 167.496.033H563M727.113 423.5c0-102.982.007-205.963-.007-308.945-.003-19.217-9.629-28.78-28.92-28.856-.999-.004-1.999-.002-2.999-.002-162.304 0-324.608 0-486.913.002-2.166 0-4.336-.054-6.498.048-15.728.744-25.65 10.847-25.657 26.644-.056 124.811-.055 249.623.076 374.434.005 4.04.88 8.405 2.568 12.055 5.195 11.23 14.759 14.545 26.642 14.535 164.304-.136 328.608-.09 492.912-.104 2.662 0 5.335-.076 7.985-.316 9.67-.878 21.323-10.912 20.976-23.511-.597-21.646-.165-43.321-.165-65.984z"/><path fill="#9FDAAD" d="M727.113 424c0 22.163-.432 43.838.165 65.484.347 12.599-11.306 22.633-20.976 23.51-2.65.241-5.323.317-7.985.317-164.304.014-328.608-.032-492.912.104-11.883.01-21.447-3.305-26.642-14.535-1.688-3.65-2.563-8.016-2.568-12.055-.13-124.811-.132-249.623-.076-374.434.007-15.797 9.93-25.9 25.657-26.644 2.162-.102 4.332-.048 6.498-.048 162.305-.002 324.609-.002 486.913-.002 1 0 2-.002 3 .002 19.29.076 28.916 9.639 28.919 28.856.014 102.982.007 205.963.007 309.445M489.955 241.455c-32.69 32.355-65.37 64.718-98.075 97.059-7.225 7.144-12.953 7.104-20.203-.072-9.948-9.847-19.829-19.764-29.81-29.578-6.766-6.654-12.965-6.792-19.59-.241-28.794 28.472-57.595 56.94-86.127 85.675-2.513 2.531-4.231 6.94-4.367 10.55-.51 13.48-.257 26.99-.192 40.488.047 9.69 4.096 13.797 13.667 13.798 137.65.02 275.3.02 412.95.002 10.304-.001 13.973-3.635 13.98-13.799.03-39.495-.039-78.99.072-118.485.014-5.222-1.761-9.153-5.453-12.812-38.224-37.897-76.336-75.907-114.497-113.869-7.45-7.411-13.007-7.391-20.573.054-13.78 13.557-27.522 27.153-41.782 41.23m-250.816-70.752c-13.283 23.716-8.532 50.553 6.8 68.098 16.647 19.05 42.502 25.506 66.462 16.831 25.297-9.159 40.885-34.098 38.644-61.824-2.011-24.869-22.381-47.327-47.424-52.284-25.775-5.103-49.489 5.449-64.482 29.179z"/><path fill="#5E3052" d="M490.206 241.206c14.01-13.828 27.751-27.424 41.53-40.981 7.567-7.445 13.124-7.465 20.574-.054 38.161 37.962 76.273 75.972 114.497 113.869 3.692 3.66 5.467 7.59 5.453 12.812-.11 39.495-.043 78.99-.072 118.485-.007 10.164-3.676 13.798-13.98 13.799-137.65.018-275.3.018-412.95-.002-9.57 0-13.62-4.108-13.667-13.798-.065-13.498-.318-27.008.192-40.488.136-3.61 1.854-8.019 4.367-10.55 28.532-28.735 57.333-57.203 86.128-85.675 6.624-6.551 12.823-6.413 19.59.24 9.98 9.815 19.86 19.732 29.81 29.58 7.249 7.175 12.977 7.215 20.202.07 32.704-32.34 65.385-64.703 98.326-97.307m139.88 71.208-88.048-87.34c-1.909 1.815-3.247 3.04-4.534 4.316-42.597 42.237-85.23 84.438-127.752 126.751-9.883 9.835-21.218 14.559-35.25 12.047-8.07-1.444-14.539-5.606-20.15-11.268-7.364-7.432-14.587-15.001-22.134-22.782-2.113 1.988-3.449 3.185-4.72 4.447-19.27 19.142-37.982 38.893-58.024 57.188-10.147 9.264-15.05 18.85-13.25 32.46.601 4.536 1.311 6.229 6.218 6.224 126.307-.126 252.614-.119 378.921-.02 4.416.004 6.041-1.006 6.01-5.781-.21-31.492-.032-62.987-.247-94.48-.018-2.63-1.425-5.743-3.181-7.772-4.133-4.774-8.867-9.027-13.86-13.99z"/><path fill="#5D2F52" d="M239.318 170.38c14.814-23.407 38.528-33.96 64.303-28.856 25.043 4.957 45.413 27.415 47.424 52.284 2.241 27.726-13.347 52.665-38.644 61.824-23.96 8.675-49.815 2.22-66.462-16.831-15.332-17.545-20.083-44.382-6.621-68.42m17.399 32.63c.3 2.137.386 4.33.933 6.4 3.407 12.912 15.425 23.732 28.035 25.373 14.914 1.941 29.25-5.078 36.28-17.762 7.006-12.642 5.794-27.94-3.083-38.903-9.438-11.657-24.768-16.044-38.648-11.06-15.08 5.415-23.708 18.242-23.517 35.952z"/><path fill="#FCC989" d="M630.337 312.663c4.741 4.714 9.475 8.967 13.608 13.741 1.756 2.029 3.163 5.142 3.18 7.773.216 31.492.039 62.987.247 94.479.032 4.775-1.593 5.785-6.009 5.782-126.307-.1-252.614-.107-378.921.019-4.907.005-5.617-1.688-6.217-6.224-1.8-13.61 3.102-23.196 13.25-32.46 20.04-18.295 38.754-38.046 58.023-57.188 1.271-1.262 2.607-2.46 4.72-4.447 7.547 7.78 14.77 15.35 22.134 22.782 5.611 5.662 12.08 9.824 20.15 11.268 14.032 2.512 25.367-2.212 35.25-12.047 42.522-42.313 85.155-84.514 127.752-126.75 1.287-1.277 2.625-2.502 4.534-4.316l88.299 87.588z"/><path fill="#EE5071" d="M256.665 202.594c-.14-17.293 8.488-30.12 23.57-35.535 13.88-4.984 29.209-.597 38.647 11.06 8.877 10.963 10.09 26.261 3.083 38.903-7.03 12.684-21.366 19.703-36.28 17.762-12.61-1.641-24.628-12.46-28.035-25.372-.547-2.072-.634-4.264-.985-6.818z"/></svg>