<svg xmlns="http://www.w3.org/2000/svg" viewBox="0 0 900 600" xml:space="preserve"><path fill="#1B1933" d="M900 601H1.078V1c299.283 0 598.645 0 898.464.461C900 201.615 900 401.307 900 601M589.848 132.243c-.284.255-.567.51-1.773.941-23.026-.064-46.052-.13-69.309-.285-.234-.083-.477-.105-1.376-.221l-48.987-54.953.699-1.541c4.9 0 9.802.046 14.702-.012 5.898-.07 9.214-2.81 9.226-7.498.011-4.48-3.534-7.322-9.433-7.36-9.498-.061-18.997-.024-28.496-.023-12.497.002-24.994-.061-37.49.043-6.189.051-9.678 3.785-8.568 8.911.925 4.277 3.867 5.952 8.039 5.934 5.228-.024 10.456-.006 17.145-.006-2.112 2.667-3.132 4.09-4.287 5.394-13.918 15.719-27.951 31.337-41.71 47.193-2.895 3.337-5.845 4.586-10.231 4.57-44.993-.152-89.987-.107-134.98-.08-10.39.006-16.041 5.661-16.21 16.033-.025 1.5-.012 3-.012 4.5v275.96c0 1.833-.042 3.668.028 5.499.346 9.066 5.813 14.571 14.84 14.743 6.997.133 14.023.401 20.989-.075 5.284-.361 6.343 1.59 6.27 6.491-.277 18.66-.25 37.329.042 55.988.044 2.794 1.337 6.56 3.389 8.132 4.808 3.684 10.6-.451 10.641-7.4.109-18.164-.018-36.328.073-54.492.048-9.407-1.657-8.43 8.948-8.657 3.497-.074 4.643 1.144 4.594 4.605-.16 11.163-.06 22.33-.052 33.495.001 1.499-.057 3.009.094 4.495.435 4.3 2.448 7.305 7.094 7.585 4.14.249 6.927-2.813 7.346-7.818.111-1.325.06-2.665.061-3.998.005-10.332.006-20.663.003-30.995-.003-7.308-.007-7.312 7.215-7.312 111.984-.001 223.968 0 335.952-.003 2.333 0 4.668.026 6.998-.064 6.422-.25 10.69-3.66 12.656-9.566.919-2.762 1.046-5.884 1.048-8.842.05-91.987-.116-183.975.195-275.96.053-15.517-3.494-23.655-22.639-22.422-6.388.411-12.824.065-19.34.065-.1-2.007-.204-3.154-.206-4.301-.015-12.498.034-24.997-.04-37.494-.031-5.182-2.985-8.42-7.265-8.317-4.042.097-6.909 3.308-7.003 8.124-.107 5.497-.038 10.998-.04 16.497-.002 8.288 0 16.576 0 25.063h-13.6v-6.34c-.003-18.831.033-37.662-.038-56.492-.02-5.207-2.949-8.53-7.13-8.548-4.178-.019-7.15 3.296-7.19 8.502-.098 12.664.008 25.33-.06 37.994-.043 7.983-.25 15.966-.822 24.318z"/><path fill="#2D2938" d="M900.5 601c-.5-199.693-.5-399.385-.5-599.539.333-.294.944-.145.956.042.083 1.328.044 2.664.044 3.997 0 198.5 0 397-.5 595.5z"/><path fill="#1B8AFB" d="M518.998 132.99c23.025.065 46.05.13 69.885.098 1.006-.47 1.205-.842 1.403-1.214.134-7.983.341-15.966.384-23.949.068-12.665-.038-25.33.06-37.994.04-5.206 3.012-8.52 7.19-8.502 4.181.019 7.11 3.341 7.13 8.548.071 18.83.035 37.661.039 56.492v6.34h13.599c0-8.487-.002-16.775 0-25.063.002-5.5-.067-11 .04-16.497.094-4.816 2.961-8.027 7.003-8.124 4.28-.103 7.234 3.135 7.265 8.317.074 12.497.025 24.996.04 37.494.002 1.147.107 2.294.206 4.3 6.516 0 12.952.347 19.34-.064 19.145-1.233 22.692 6.905 22.64 22.422-.312 91.985-.145 183.973-.196 275.96-.002 2.958-.129 6.08-1.048 8.842-1.966 5.906-6.234 9.316-12.656 9.566-2.33.09-4.665.064-6.998.064-111.984.003-223.968.002-335.952.003-7.222 0-7.218.004-7.215 7.312.003 10.332.002 20.663-.003 30.995 0 1.333.05 2.673-.06 3.998-.42 5.005-3.208 8.067-7.347 7.818-4.646-.28-6.66-3.285-7.094-7.585-.15-1.486-.093-2.996-.094-4.495-.008-11.166-.107-22.332.052-33.495.05-3.46-1.097-4.68-4.594-4.605-10.605.226-8.9-.75-8.948 8.657-.091 18.164.036 36.328-.073 54.492-.041 6.949-5.833 11.084-10.641 7.4-2.052-1.572-3.345-5.338-3.389-8.132-.292-18.66-.32-37.328-.042-55.988.073-4.901-.986-6.852-6.27-6.49-6.966.475-13.992.207-20.988.074-9.028-.172-14.495-5.677-14.841-14.743-.07-1.83-.028-3.666-.028-5.499v-275.96c0-1.5-.013-3 .011-4.5.17-10.372 5.822-16.027 16.21-16.033 44.994-.027 89.988-.072 134.98.08 4.387.016 7.337-1.233 10.232-4.57 13.759-15.856 27.792-31.474 41.71-47.193 1.155-1.304 2.175-2.727 4.287-5.394-6.689 0-11.917-.018-17.145.006-4.172.018-7.114-1.657-8.04-5.934-1.109-5.126 2.38-8.86 8.569-8.911 12.496-.104 24.993-.041 37.49-.043 9.499 0 18.998-.038 28.496.023 5.899.038 9.444 2.88 9.433 7.36-.012 4.688-3.328 7.427-9.226 7.498-4.9.058-9.801.012-14.702.012l-.699 1.541c16.329 18.318 32.658 36.635 49.538 55.147.72.169.888.143 1.057.118m-22.407-.034c-.087-.44-.174-.879-.492-1.946l-45.3-51.275c-15.49 17.72-30.38 34.756-45.764 52.215.322.342.645.685 1.464 1.15.166-.036.333-.07 1.42.086 7.3.02 14.6.073 21.9.052 21.727-.065 43.454-.159 65.683-.143.164-.047.328-.094 1.089-.14M283.03 242.096c.057 4.61.114 9.22.048 14.76.036 4.336.072 8.672-.072 13.943.067 4.606.133 9.211.066 14.794.002 18.773.004 37.546-.043 57.26.028 4.463.055 8.926-.04 14.276.068 4.63.135 9.259.095 14.818-.036 4.327-.1 8.654-.103 12.981-.006 7.219.01 7.236 6.991 7.236 107.206.004 214.41.003 321.616.002.333 0 .672-.041.998.006 4.68.671 6.546-1.1 6.333-6.037-.352-8.142-.046-16.31-.14-24.466-.02-1.784-.556-3.562-.479-6.124.172-4.578.344-9.156.491-14.647-.052-23.534-.105-47.068.045-71.556-.068-4.651-.137-9.303-.105-14.935.031-18.491.07-36.983.092-55.474.01-7.799-.006-7.807-7.965-7.807-106.62-.002-213.238-.001-319.858 0-1.332 0-2.669.084-3.997.008-3.062-.173-4.113 1.366-4.036 4.253.15 5.659.157 11.322.058 17.846.056 4.615.113 9.231.046 14.761.041 4.403.083 8.805-.041 14.103M629.205 420.89h5.566l1.582-2.606c-3.512-2.792-6.895-5.773-10.588-8.302-2.038-1.396-4.595-2.886-6.92-2.888-111.998-.14-223.997-.125-335.995-.099-1.465 0-3.416-.162-4.312.658-4.211 3.854-8.133 8.025-12.158 12.083l.617 1.154h362.208M290.5 162.58h-23.432c1.652 3.373 3.714 5.125 5.258 7.253 3.894 5.365 8.929 6.682 15.489 6.67 109.15-.205 218.3-.146 327.45-.146 7.744 0 16.063-5.807 19.288-13.778H290.5m350.126 16.548c-6.349 4.626-7.848 10.765-7.808 18.57.323 63.635.424 127.274-.054 190.906-.08 10.736 7.663 14.183 13.612 21.345V174.59l-1.848-1.468c-1.135 1.833-2.27 3.666-3.902 6.007M255.076 230.5v179.765c4.406-4.427 7.926-7.507 10.84-11.08 1.527-1.871 2.807-4.608 2.812-6.957.147-67.123.122-134.246.09-201.369-.002-1.452.094-3.409-.742-4.27-3.977-4.1-8.262-7.902-13-12.338V230.5z"/><path fill="#1B1021" d="M590.067 132.058c.02.188-.178.56-.723.942-.063-.246.22-.502.723-.942zM518.882 132.944c-.053.071-.22.097-.616.007.023-.157.266-.135.616-.007z"/><path fill="#1C3C72" d="M283.078 341.91c-.002-18.772-.004-37.545.513-56.807 19.494-.496 38.47-.497 57.447-.517 1.828-.002 3.67.002 5.482-.205 3.836-.44 6.037-2.702 6.354-6.516.324-3.882-1.77-6.382-5.333-7.42-1.869-.544-3.946-.5-5.93-.505-19.474-.052-38.95-.057-58.425-.076-.036-4.337-.072-8.673.406-13.481 32.828-.487 65.143-.442 97.457-.55 11.482-.038 20.506-9.11 20.892-20.58.448-13.345-8.794-22.774-22.808-22.824-31.98-.116-63.962-.052-95.944-.06-.065-5.661-.072-11.324-.222-16.983-.077-2.887.974-4.426 4.036-4.253 1.328.076 2.665-.008 3.997-.008 106.62-.001 213.239-.002 319.858 0 7.96 0 7.974.008 7.965 7.807-.023 18.491-.06 36.983-.582 55.97-17.963.509-35.436.513-52.91.54-2.827.004-5.663-.008-8.481.19-5.089.358-7.828 2.954-7.851 7.22-.026 4.525 2.775 7.035 8.233 7.306 1.66.083 3.327.033 4.991.036l56.411.1c.052 23.535.105 47.069-.28 71.098-16.235.528-32.034.624-47.831.505-1.761-.013-4.24-.718-5.156-1.988a1267.35 1267.35 0 0 1-28.225-40.786c12.782-.046 25.068-.042 37.354-.092 6.05-.024 9.322-2.564 9.39-7.148.07-4.82-2.956-7.566-9.031-7.591-16.269-.069-32.538.04-49.053-.177-3.93-5.4-7.61-10.548-11.297-15.691-5.297-7.39-9.963-7.436-15.162-.112-8.002 11.273-15.968 22.57-23.974 33.84-1.013 1.425-2.18 2.742-3.605 4.522-1.61-2.159-2.823-3.717-3.964-5.327-7.609-10.735-15.186-21.493-22.805-32.22-6.042-8.506-10.183-8.476-16.295.14-16.19 22.823-32.377 45.647-48.494 68.521-1.826 2.591-3.599 4.3-7.182 4.28-29.981-.17-59.964-.133-89.946-.158z"/><path fill="#1C3C72" d="M617.925 356.325c.298 1.78.834 3.559.855 5.343.093 8.155-.213 16.324.139 24.466.213 4.937-1.654 6.708-6.333 6.037-.326-.047-.665-.006-.998-.006-107.205 0-214.41.002-321.616-.002-6.98 0-6.997-.017-6.991-7.236.003-4.327.067-8.654.61-13.457 68.165-.489 135.824-.5 203.483-.52 2.165-.001 4.36.113 6.487-.197 4.025-.586 6.216-3.17 6.32-7.165.102-3.879-2.253-6.173-5.823-7.1-1.578-.41-3.305-.308-4.966-.321-11.496-.092-22.992-.154-34.279-.503 17.371-24.277 34.533-48.276 52.065-72.793 1.842 2.474 3.057 4.037 4.199 5.65 14.821 20.929 29.673 41.836 44.403 62.83 2.281 3.25 4.812 5.176 8.99 5.14 17.817-.157 35.636-.128 53.455-.166z"/><path fill="#40AFFB" d="M618.113 355.934c-18.007.43-35.826.4-53.643.557-4.178.036-6.709-1.89-8.99-5.14-14.73-20.994-29.582-41.901-44.403-62.83-1.142-1.613-2.357-3.176-4.199-5.65-17.532 24.517-34.694 48.516-52.503 72.813-4.139.353-7.63.455-11.121.457-53.381.04-106.762.069-160.143.1-.027-4.463-.054-8.926-.057-13.86 30.006-.446 59.989-.482 89.97-.313 3.583.02 5.356-1.689 7.182-4.28 16.117-22.874 32.305-45.698 48.494-68.521 6.112-8.616 10.253-8.646 16.295-.14 7.62 10.727 15.196 21.485 22.805 32.22 1.141 1.61 2.354 3.168 3.964 5.327 1.426-1.78 2.592-3.097 3.605-4.522 8.006-11.27 15.972-22.567 23.974-33.84 5.2-7.324 9.865-7.278 15.162.112 3.687 5.143 7.368 10.29 11.39 15.997 3.81 5.283 7.28 10.007 10.75 14.73 9.536 13.613 19.004 27.275 28.722 40.758.915 1.27 3.395 1.975 5.156 1.988 15.797.119 31.596.023 47.844-.048.277 4.54.105 9.117-.254 14.085m-172.43-60.938c-2.786-3.945-5.57-7.89-8.824-12.496l-42.03 59.38c7.135 0 12.731 0 19.369.065 9.629.017 19.26.179 28.883-.065 2-.051 4.636-1.07 5.821-2.562 4.33-5.45 8.345-11.18 12.066-17.065.85-1.345.781-4.218-.11-5.559-4.777-7.18-9.948-14.097-15.175-21.698z"/><path fill="#1B1D3B" d="M628.741 420.89H266.997l-.617-1.153c4.025-4.058 7.947-8.229 12.158-12.083.896-.82 2.847-.657 4.312-.658 111.998-.026 223.997-.042 335.995.099 2.325.002 4.882 1.492 6.92 2.888 3.693 2.529 7.076 5.51 10.588 8.302l-1.582 2.606h-6.03z"/><path fill="#1B1933" d="M291 162.58h343.553c-3.225 7.971-11.544 13.778-19.288 13.778-109.15 0-218.3-.06-327.45.146-6.56.012-11.595-1.305-15.489-6.67-1.544-2.128-3.606-3.88-5.258-7.254H291z"/><path fill="#8899B5" d="M283.107 212.8c32.064-.423 64.045-.487 96.026-.371 14.014.05 23.256 9.48 22.808 22.824-.386 11.47-9.41 20.542-20.892 20.58-32.314.108-64.629.063-97.395.085-.51-4.603-.567-9.213-.089-14.265 31.48-.434 62.425-.419 93.37-.435 1.82-.001 4.17.401 5.34-.542 2.105-1.698 4.662-4.182 4.847-6.51.162-2.043-2.353-4.694-4.3-6.357-1.146-.98-3.49-.741-5.294-.743-31.445-.024-62.889 0-94.333.013-.057-4.616-.114-9.232-.088-14.279z"/><path fill="#899BB8" d="M283.05 356.684c53.442-.474 106.823-.502 160.204-.543 3.491-.002 6.982-.104 10.911-.18 11.935.052 23.431.114 34.927.206 1.66.013 3.388-.088 4.966.321 3.57.927 5.925 3.221 5.823 7.1-.104 3.996-2.295 6.58-6.32 7.165-2.127.31-4.322.196-6.487.196-67.659.021-135.318.032-203.43.056-.52-4.618-.587-9.248-.593-14.32z"/><path fill="#1B1E3B" d="M640.875 178.874c1.383-2.087 2.518-3.92 3.653-5.753l1.848 1.469v235.36c-5.949-7.163-13.692-10.61-13.612-21.346.478-63.632.377-127.271.054-190.906-.04-7.805 1.459-13.944 8.057-18.824z"/><path fill="#1B1E3C" d="M255.076 230v-55.749c4.738 4.436 9.023 8.238 13 12.338.836.861.74 2.818.741 4.27.033 67.123.058 134.246-.089 201.37-.005 2.348-1.285 5.085-2.811 6.956-2.915 3.573-6.435 6.653-10.84 11.08V230z"/><path fill="#1B1A36" d="m405.529 131.527 45.27-51.792c15.395 17.426 30.348 34.35 45.296 51.736-.004.46-.24.755-.394.869-.335.295-.518.476-.7.657-21.728.082-43.455.176-65.183.24-7.3.022-14.6-.031-22.505-.296-.79-.454-.995-.639-1.362-.954-.14-.155-.422-.46-.422-.46z"/><path fill="#1E3D73" d="M283.133 227.536c31.506-.47 62.95-.494 94.395-.47 1.805.002 4.148-.237 5.294.743 1.947 1.663 4.462 4.314 4.3 6.356-.185 2.329-2.742 4.813-4.847 6.51-1.17.944-3.52.542-5.34.543-30.945.016-61.89 0-93.288-.012-.493-4.408-.535-8.81-.514-13.67z"/><path fill="#8898B5" d="M283.096 270.331c19.565-.448 39.04-.443 58.516-.391 1.983.005 4.06-.039 5.93.506 3.561 1.037 5.656 3.537 5.332 7.42-.317 3.813-2.518 6.076-6.354 6.515-1.812.207-3.654.203-5.482.205-18.976.02-37.953.02-57.38.028-.519-4.605-.585-9.21-.562-14.283z"/><path fill="#8B9BB7" d="M618.735 269.818c-18.904.443-37.708.41-56.512.376-1.664-.003-3.33.047-4.991-.036-5.458-.271-8.259-2.781-8.233-7.307.023-4.265 2.762-6.86 7.85-7.219 2.819-.198 5.655-.186 8.483-.19 17.473-.027 34.946-.031 52.858-.049.51 4.645.578 9.297.545 14.425z"/><path fill="#1B1A36" d="M406.003 132.978c-.323-.343-.646-.686-.721-1.24.247-.211.53.094.645.457.115.363.076.783.076.783z"/><path fill="#1B1021" d="M406.25 133.038c-.247-.06-.208-.48-.184-.688.252-.048.457.137.786.496-.02.184-.187.218-.601.192z"/><path fill="#1B1A36" d="M496.21 131.784c.207.293.294.732.047.989-.334-.183-.402-.547-.402-.547l.355-.442z"/><path fill="#1B1021" d="M495.701 132.34c.154-.114.222.25.257.432-.128.229-.292.276-.706.274-.069-.23.114-.41.45-.706z"/><path fill="#8899B5" d="M537.142 299.123c-3.967-4.695-7.437-9.419-11-14.447 16.175-.344 32.444-.453 48.713-.384 6.075.025 9.102 2.771 9.03 7.591-.067 4.584-3.339 7.124-9.39 7.148-12.285.05-24.57.046-37.353.092z"/><path fill="#1D3E74" d="M445.875 295.589c5.035 7.008 10.206 13.926 14.982 21.105.892 1.341.961 4.214.111 5.559-3.72 5.885-7.735 11.614-12.066 17.065-1.185 1.492-3.82 2.51-5.821 2.562-9.622.244-19.254.082-29.253-.312 10.437-15.578 21.242-30.779 32.047-45.98z"/><path fill="#899BB8" d="M445.779 295.292c-10.709 15.497-21.514 30.698-32.471 46.243-5.748.345-11.344.345-18.478.345l42.03-59.38c3.252 4.607 6.037 8.551 8.919 12.792z"/></svg>