<svg version="1.1" id="Layer_1" xmlns="http://www.w3.org/2000/svg" xmlns:xlink="http://www.w3.org/1999/xlink" x="0px" y="0px"
	 width="100%" viewBox="0 0 900 600" enable-background="new 0 0 900 600" xml:space="preserve">
<path fill="#1B1933" opacity="1.000000" stroke="none" 
	d="
M900.000000,601.000000 
	C600.385315,601.000000 300.770660,601.000000 1.077992,601.000000 
	C1.077992,401.086731 1.077992,201.173401 1.077992,1.000000 
	C300.361328,1.000000 599.722717,1.000000 899.542053,1.461255 
	C900.000000,201.615005 900.000000,401.307495 900.000000,601.000000 
M589.847656,132.242569 
	C589.564270,132.498230 589.280884,132.753876 588.074585,133.184494 
	C565.048950,133.119583 542.023254,133.054657 518.766479,132.899002 
	C518.531738,132.815842 518.289001,132.794388 517.389771,132.677719 
	C501.060883,114.360283 484.731995,96.042847 468.403107,77.725403 
	C468.636017,77.211487 468.868896,76.697571 469.101807,76.183655 
	C474.002533,76.183655 478.903778,76.230270 483.803802,76.171654 
	C489.701538,76.101112 493.018188,73.362251 493.029846,68.673775 
	C493.040985,64.193672 489.495850,61.352356 483.596863,61.314289 
	C474.098602,61.252991 464.599670,61.290390 455.101044,61.291500 
	C442.604187,61.292961 430.106781,61.229958 417.610748,61.333675 
	C411.422333,61.385040 407.933441,65.118675 409.042511,70.245178 
	C409.967773,74.521996 412.909943,76.197334 417.081879,76.178612 
	C422.310059,76.155151 427.538483,76.172966 434.226898,76.172966 
	C432.114929,78.840492 431.094543,80.263252 429.939972,81.567238 
	C416.022308,97.285973 401.988770,112.903824 388.230103,128.760284 
	C385.334595,132.097244 382.385071,133.345627 377.998840,133.330719 
	C333.005798,133.177795 288.012024,133.222900 243.018448,133.249710 
	C232.629608,133.255905 226.977737,138.911240 226.808167,149.283188 
	C226.783661,150.782623 226.796570,152.282700 226.796570,153.782486 
	C226.796158,245.769333 226.796097,337.756165 226.797012,429.743011 
	C226.797028,431.576050 226.754837,433.411194 226.824738,435.241821 
	C227.170929,444.307678 232.637756,449.813354 241.665665,449.984955 
	C248.662231,450.117920 255.687988,450.386261 262.653992,449.910187 
	C267.938354,449.549011 268.996643,451.499542 268.923889,456.401184 
	C268.646912,475.061035 268.674194,493.729675 268.966125,512.389099 
	C269.009796,515.182983 270.303009,518.949158 272.354675,520.520874 
	C277.163239,524.204590 282.954956,520.069824 282.996399,513.120789 
	C283.104797,494.957336 282.977905,476.792572 283.069397,458.628937 
	C283.116791,449.221771 281.411621,450.198395 292.017059,449.972137 
	C295.513550,449.897583 296.660278,451.116364 296.610901,454.577179 
	C296.451721,465.739960 296.551331,476.906464 296.559174,488.071533 
	C296.560242,489.570770 296.502228,491.080597 296.652649,492.567200 
	C297.087585,496.866913 299.100555,499.872070 303.747162,500.151733 
	C307.886292,500.400879 310.674286,497.338989 311.093079,492.334015 
	C311.203979,491.008942 311.153442,489.669281 311.154022,488.336304 
	C311.158508,478.004456 311.160400,467.672607 311.156830,457.340759 
	C311.154327,450.032593 311.149963,450.028870 318.372192,450.028809 
	C430.356171,450.027985 542.340149,450.028595 654.324158,450.025940 
	C656.656921,450.025879 658.991943,450.052002 661.321960,449.961578 
	C667.743774,449.712341 672.011719,446.302094 673.977600,440.395935 
	C674.896973,437.633636 675.024231,434.512451 675.025879,431.553650 
	C675.076782,339.566833 674.909912,247.579468 675.221497,155.593674 
	C675.274048,140.077194 671.726807,131.938797 652.582397,133.171677 
	C646.194397,133.583069 639.757507,133.236633 633.242126,133.236633 
	C633.142578,131.230011 633.037598,130.083099 633.036194,128.936035 
	C633.021057,116.437851 633.070129,103.939354 632.995667,91.441574 
	C632.964783,86.259567 630.011353,83.022263 625.730774,83.125076 
	C621.689392,83.222145 618.821960,86.432808 618.728210,91.248680 
	C618.621216,96.745895 618.690308,102.246605 618.688477,107.745796 
	C618.685669,116.033981 618.687744,124.322166 618.687744,132.808609 
	C613.890747,132.808609 609.702393,132.808609 605.088745,132.808609 
	C605.088745,130.417709 605.089111,128.443161 605.088745,126.468628 
	C605.084717,107.638000 605.121155,88.807220 605.050049,69.976845 
	C605.030396,64.770042 602.101135,61.447598 597.919373,61.428921 
	C593.741577,61.410259 590.770447,64.725426 590.729980,69.930794 
	C590.631592,82.594894 590.737610,95.260483 590.669922,107.924973 
	C590.627258,115.908295 590.419800,123.890732 589.847656,132.242569 
z"/>
<path fill="#2D2938" opacity="1.000000" stroke="none" 
	d="
M900.500000,601.000000 
	C900.000000,401.307495 900.000000,201.615005 900.000000,1.461266 
	C900.333313,1.166690 900.943787,1.315937 900.955566,1.502816 
	C901.039001,2.830881 901.000000,4.166667 901.000000,5.500000 
	C901.000000,204.000000 901.000000,402.500000 900.500000,601.000000 
z"/>
<path fill="#1B8AFB" opacity="1.000000" stroke="none" 
	d="
M518.997620,132.989746 
	C542.023254,133.054657 565.048950,133.119583 588.882751,133.087646 
	C589.889343,132.618378 590.087830,132.245972 590.286255,131.873566 
	C590.419800,123.890732 590.627258,115.908295 590.669922,107.924973 
	C590.737610,95.260483 590.631592,82.594894 590.729980,69.930794 
	C590.770447,64.725426 593.741577,61.410259 597.919373,61.428921 
	C602.101135,61.447598 605.030396,64.770042 605.050049,69.976845 
	C605.121155,88.807220 605.084717,107.638000 605.088745,126.468628 
	C605.089111,128.443161 605.088745,130.417709 605.088745,132.808609 
	C609.702393,132.808609 613.890747,132.808609 618.687744,132.808609 
	C618.687744,124.322166 618.685669,116.033981 618.688477,107.745796 
	C618.690308,102.246605 618.621216,96.745895 618.728210,91.248680 
	C618.821960,86.432808 621.689392,83.222145 625.730774,83.125076 
	C630.011353,83.022263 632.964783,86.259567 632.995667,91.441574 
	C633.070129,103.939354 633.021057,116.437851 633.036194,128.936035 
	C633.037598,130.083099 633.142578,131.230011 633.242126,133.236633 
	C639.757507,133.236633 646.194397,133.583069 652.582397,133.171677 
	C671.726807,131.938797 675.274048,140.077194 675.221497,155.593674 
	C674.909912,247.579468 675.076782,339.566833 675.025879,431.553650 
	C675.024231,434.512451 674.896973,437.633636 673.977600,440.395935 
	C672.011719,446.302094 667.743774,449.712341 661.321960,449.961578 
	C658.991943,450.052002 656.656921,450.025879 654.324158,450.025940 
	C542.340149,450.028595 430.356171,450.027985 318.372192,450.028809 
	C311.149963,450.028870 311.154327,450.032593 311.156830,457.340759 
	C311.160400,467.672607 311.158508,478.004456 311.154022,488.336304 
	C311.153442,489.669281 311.203979,491.008942 311.093079,492.334015 
	C310.674286,497.338989 307.886292,500.400879 303.747162,500.151733 
	C299.100555,499.872070 297.087585,496.866913 296.652649,492.567200 
	C296.502228,491.080597 296.560242,489.570770 296.559174,488.071533 
	C296.551331,476.906464 296.451721,465.739960 296.610901,454.577179 
	C296.660278,451.116364 295.513550,449.897583 292.017059,449.972137 
	C281.411621,450.198395 283.116791,449.221771 283.069397,458.628937 
	C282.977905,476.792572 283.104797,494.957336 282.996399,513.120789 
	C282.954956,520.069824 277.163239,524.204590 272.354675,520.520874 
	C270.303009,518.949158 269.009796,515.182983 268.966125,512.389099 
	C268.674194,493.729675 268.646912,475.061035 268.923889,456.401184 
	C268.996643,451.499542 267.938354,449.549011 262.653992,449.910187 
	C255.687988,450.386261 248.662231,450.117920 241.665665,449.984955 
	C232.637756,449.813354 227.170929,444.307678 226.824738,435.241821 
	C226.754837,433.411194 226.797028,431.576050 226.797012,429.743011 
	C226.796097,337.756165 226.796158,245.769333 226.796570,153.782486 
	C226.796570,152.282700 226.783661,150.782623 226.808167,149.283188 
	C226.977737,138.911240 232.629608,133.255905 243.018448,133.249710 
	C288.012024,133.222900 333.005798,133.177795 377.998840,133.330719 
	C382.385071,133.345627 385.334595,132.097244 388.230103,128.760284 
	C401.988770,112.903824 416.022308,97.285973 429.939972,81.567238 
	C431.094543,80.263252 432.114929,78.840492 434.226898,76.172966 
	C427.538483,76.172966 422.310059,76.155151 417.081879,76.178612 
	C412.909943,76.197334 409.967773,74.521996 409.042511,70.245178 
	C407.933441,65.118675 411.422333,61.385040 417.610748,61.333675 
	C430.106781,61.229958 442.604187,61.292961 455.101044,61.291500 
	C464.599670,61.290390 474.098602,61.252991 483.596863,61.314289 
	C489.495850,61.352356 493.040985,64.193672 493.029846,68.673775 
	C493.018188,73.362251 489.701538,76.101112 483.803802,76.171654 
	C478.903778,76.230270 474.002533,76.183655 469.101807,76.183655 
	C468.868896,76.697571 468.636017,77.211487 468.403107,77.725403 
	C484.731995,96.042847 501.060883,114.360283 517.941406,132.872070 
	C518.661255,133.040848 518.829468,133.015305 518.997620,132.989746 
M496.590607,132.955612 
	C496.503723,132.516479 496.416809,132.077332 496.099243,131.010422 
	C481.146790,114.085472 466.194366,97.160515 450.799438,79.734711 
	C435.309692,97.455818 420.419250,114.491287 405.034607,131.949738 
	C405.357422,132.292419 405.680237,132.635101 406.498779,133.099060 
	C406.665344,133.064377 406.831909,133.029678 407.919067,133.186218 
	C415.218781,133.205521 422.518585,133.259277 429.818176,133.237656 
	C451.545746,133.173264 473.273193,133.079254 495.502350,133.095001 
	C495.666046,133.047745 495.829742,133.000504 496.590607,132.955612 
M283.030029,242.095673 
	C283.087097,246.705322 283.144165,251.314987 283.077606,256.854431 
	C283.113678,261.190857 283.149780,265.527283 283.006348,270.798340 
	C283.072845,275.403809 283.139343,280.009247 283.071960,285.592499 
	C283.073944,304.365082 283.075928,323.137634 283.029419,342.852753 
	C283.056641,347.315247 283.083893,351.777740 282.989868,357.128082 
	C283.056854,361.757324 283.123840,366.386536 283.084259,371.945801 
	C283.047668,376.273010 282.983856,380.600220 282.980591,384.927460 
	C282.975128,392.145966 282.991425,392.162811 289.972290,392.163055 
	C397.177521,392.166656 504.382782,392.165527 611.588013,392.165466 
	C611.920959,392.165466 612.259705,392.123718 612.585938,392.170532 
	C617.265259,392.842407 619.131592,391.070831 618.918518,386.133698 
	C618.567200,377.991882 618.873413,369.823364 618.779785,361.667511 
	C618.759277,359.883575 618.223206,358.105530 618.300476,355.543579 
	C618.472290,350.965820 618.644104,346.388092 618.791016,340.897095 
	C618.738708,317.362885 618.686401,293.828705 618.836243,269.341003 
	C618.767700,264.689575 618.699158,260.038177 618.730896,254.405807 
	C618.762451,235.914627 618.800171,217.423462 618.822571,198.932281 
	C618.832092,191.132980 618.817322,191.125320 610.857910,191.125198 
	C504.238708,191.123474 397.619537,191.123932 291.000336,191.124969 
	C289.667633,191.124985 288.331055,191.208694 287.003052,191.133453 
	C283.941162,190.959991 282.890259,192.498535 282.966827,195.386139 
	C283.116913,201.044968 283.123505,206.707611 283.024536,213.231628 
	C283.081360,217.847321 283.138214,222.462997 283.071014,227.993088 
	C283.112305,232.395798 283.153595,236.798492 283.030029,242.095673 
M629.204712,420.890564 
	C631.059998,420.890564 632.915283,420.890564 634.770630,420.890564 
	C635.298035,420.022156 635.825439,419.153748 636.352844,418.285370 
	C632.840515,415.493073 629.457581,412.511902 625.764771,409.983154 
	C623.726624,408.587494 621.169861,407.097473 618.844971,407.094574 
	C506.846832,406.954315 394.848480,406.969727 282.850128,406.996460 
	C281.385132,406.996826 279.433594,406.834442 278.538208,407.653870 
	C274.326721,411.508209 270.405060,415.679260 266.379974,419.737274 
	C266.585602,420.121735 266.791229,420.506195 266.996826,420.890656 
	C387.423859,420.890656 507.850922,420.890656 629.204712,420.890564 
M290.500305,162.580475 
	C282.689484,162.580475 274.878662,162.580475 267.067841,162.580475 
	C268.719971,165.953598 270.781555,167.706436 272.326263,169.834473 
	C276.220276,175.199112 281.254547,176.515808 287.814667,176.503510 
	C396.964386,176.298798 506.114594,176.357635 615.264709,176.357605 
	C623.008789,176.357605 631.327820,170.551086 634.552917,162.580383 
	C520.084106,162.580383 405.792206,162.580383 290.500305,162.580475 
M640.626465,179.127792 
	C634.277039,183.753876 632.778442,189.892990 632.818054,197.697937 
	C633.141357,261.332672 633.241882,324.971619 632.764282,388.604462 
	C632.683777,399.339783 640.427368,402.786835 646.375854,409.949219 
	C646.375854,330.525604 646.375854,252.557724 646.375854,174.589844 
	C645.759827,174.100204 645.143860,173.610565 644.527832,173.120926 
	C643.392761,174.953857 642.257751,176.786789 640.626465,179.127792 
M255.076340,230.500000 
	C255.076340,289.972839 255.076340,349.445709 255.076340,410.264862 
	C259.481781,405.838135 263.002228,402.758453 265.916809,399.184631 
	C267.442627,397.313690 268.722900,394.577026 268.728027,392.228271 
	C268.875244,325.105499 268.850342,257.982330 268.817078,190.859253 
	C268.816345,189.406982 268.911682,187.450272 268.075867,186.588638 
	C264.098724,182.488647 259.814423,178.686630 255.076355,174.251495 
	C255.076355,193.007263 255.076355,211.253632 255.076340,230.500000 
z"/>
<path fill="#1B1021" opacity="1.000000" stroke="none" 
	d="
M590.066956,132.058075 
	C590.087830,132.245972 589.889343,132.618378 589.344177,133.000153 
	C589.280884,132.753876 589.564270,132.498230 590.066956,132.058075 
z"/>
<path fill="#1B1021" opacity="1.000000" stroke="none" 
	d="
M518.882080,132.944366 
	C518.829468,133.015305 518.661255,133.040848 518.265747,132.950516 
	C518.289001,132.794388 518.531738,132.815842 518.882080,132.944366 
z"/>
<path fill="#1C3C72" opacity="1.000000" stroke="none" 
	d="
M283.077911,341.910217 
	C283.075928,323.137634 283.073944,304.365082 283.590637,285.102631 
	C303.085449,284.606628 322.061554,284.605591 341.037659,284.586243 
	C342.866028,284.584381 344.707947,284.588104 346.519745,284.380798 
	C350.356140,283.941895 352.556976,281.679047 352.874451,277.865112 
	C353.197601,273.983307 351.103424,271.483215 347.541077,270.445648 
	C345.672150,269.901337 343.595306,269.945038 341.611755,269.939819 
	C322.136536,269.888367 302.661163,269.882507 283.185852,269.863708 
	C283.149780,265.527283 283.113678,261.190857 283.591797,256.383026 
	C316.420441,255.896240 348.735107,255.940674 381.049255,255.833420 
	C392.531311,255.795303 401.555237,246.722717 401.940552,235.252563 
	C402.388885,221.908478 393.147034,212.479324 379.133453,212.428772 
	C347.152496,212.313461 315.170837,212.377487 283.189484,212.368668 
	C283.123505,206.707611 283.116913,201.044968 282.966827,195.386139 
	C282.890259,192.498535 283.941162,190.959991 287.003052,191.133453 
	C288.331055,191.208694 289.667633,191.124985 291.000336,191.124969 
	C397.619537,191.123932 504.238708,191.123474 610.857910,191.125198 
	C618.817322,191.125320 618.832092,191.132980 618.822571,198.932281 
	C618.800171,217.423462 618.762451,235.914627 618.240601,254.902527 
	C600.277527,255.410812 582.804688,255.414948 565.331848,255.441406 
	C562.503784,255.445694 559.667786,255.433517 556.849670,255.632034 
	C551.761292,255.990479 549.022461,258.586426 548.998535,262.851135 
	C548.973145,267.376770 551.773743,269.886505 557.231934,270.158264 
	C558.892273,270.240967 560.559448,270.190613 562.223450,270.193665 
	C581.026978,270.228119 599.830566,270.261108 618.634094,270.294495 
	C618.686401,293.828705 618.738708,317.362885 618.354126,341.392487 
	C602.118774,341.920288 586.319824,342.015564 570.522583,341.896973 
	C568.761902,341.883728 566.282349,341.179413 565.366577,339.908783 
	C555.649353,326.426025 546.181396,312.763611 537.141785,299.122864 
	C549.924438,299.076935 562.210083,299.081268 574.495605,299.031189 
	C580.546326,299.006500 583.818115,296.467010 583.885620,291.883362 
	C583.956604,287.063324 580.929871,284.317261 574.854980,284.291626 
	C558.586426,284.222992 542.317078,284.331726 525.802063,284.114929 
	C521.872681,278.714264 518.191833,273.566772 514.505188,268.423523 
	C509.208038,261.033569 504.542053,260.987793 499.343048,268.312225 
	C491.341431,279.584930 483.375244,290.882782 475.368622,302.151886 
	C474.355896,303.577240 473.189941,304.893707 471.764038,306.673706 
	C470.154480,304.515198 468.941101,302.956604 467.800110,301.346741 
	C460.191376,290.611542 452.614380,279.853851 444.994659,269.126495 
	C438.952942,260.620728 434.811584,260.651459 428.700226,269.266907 
	C412.510834,292.089966 396.323181,314.914307 380.205872,337.788177 
	C378.380219,340.379211 376.607361,342.087646 373.023987,342.067505 
	C343.042603,341.898621 313.060089,341.935425 283.077911,341.910217 
z"/>
<path fill="#1C3C72" opacity="1.000000" stroke="none" 
	d="
M617.924561,356.324707 
	C618.223206,358.105530 618.759277,359.883575 618.779785,361.667511 
	C618.873413,369.823364 618.567200,377.991882 618.918518,386.133698 
	C619.131592,391.070831 617.265259,392.842407 612.585938,392.170532 
	C612.259705,392.123718 611.920959,392.165466 611.588013,392.165466 
	C504.382782,392.165527 397.177521,392.166656 289.972290,392.163055 
	C282.991425,392.162811 282.975128,392.145966 282.980591,384.927460 
	C282.983856,380.600220 283.047668,376.273010 283.590698,371.470032 
	C351.756226,370.981445 419.415344,370.970093 487.074463,370.949280 
	C489.238922,370.948608 491.434265,371.063019 493.561249,370.753296 
	C497.585632,370.167236 499.776672,367.583588 499.881470,363.587860 
	C499.983215,359.709106 497.628082,357.414795 494.057800,356.488098 
	C492.480194,356.078613 490.752655,356.180267 489.092224,356.166931 
	C477.596252,356.074585 466.100006,356.013062 454.813049,355.664032 
	C472.184113,331.387207 489.345978,307.387939 506.878021,282.871033 
	C508.720398,285.345428 509.934509,286.907532 511.076782,288.520508 
	C525.898071,309.449585 540.749939,330.357330 555.480164,351.350342 
	C557.761414,354.601410 560.292297,356.527344 564.469910,356.490570 
	C582.287231,356.333710 600.106201,356.363251 617.924561,356.324707 
z"/>
<path fill="#40AFFB" opacity="1.000000" stroke="none" 
	d="
M618.112549,355.934143 
	C600.106201,356.363251 582.287231,356.333710 564.469910,356.490570 
	C560.292297,356.527344 557.761414,354.601410 555.480164,351.350342 
	C540.749939,330.357330 525.898071,309.449585 511.076782,288.520508 
	C509.934509,286.907532 508.720398,285.345428 506.878021,282.871033 
	C489.345978,307.387939 472.184113,331.387207 454.374634,355.683899 
	C450.235962,356.036926 446.744995,356.138519 443.253937,356.141174 
	C389.873016,356.181793 336.492065,356.209534 283.111145,356.240234 
	C283.083893,351.777740 283.056641,347.315247 283.053650,342.381470 
	C313.060089,341.935425 343.042603,341.898621 373.023987,342.067505 
	C376.607361,342.087646 378.380219,340.379211 380.205872,337.788177 
	C396.323181,314.914307 412.510834,292.089966 428.700226,269.266907 
	C434.811584,260.651459 438.952942,260.620728 444.994659,269.126495 
	C452.614380,279.853851 460.191376,290.611542 467.800110,301.346741 
	C468.941101,302.956604 470.154480,304.515198 471.764038,306.673706 
	C473.189941,304.893707 474.355896,303.577240 475.368622,302.151886 
	C483.375244,290.882782 491.341431,279.584930 499.343048,268.312225 
	C504.542053,260.987793 509.208038,261.033569 514.505188,268.423523 
	C518.191833,273.566772 521.872681,278.714264 525.895508,284.420593 
	C529.704895,289.704468 533.174866,294.427551 536.644775,299.150665 
	C546.181396,312.763611 555.649353,326.426025 565.366577,339.908783 
	C566.282349,341.179413 568.761902,341.883728 570.522583,341.896973 
	C586.319824,342.015564 602.118774,341.920288 618.366577,341.849121 
	C618.644104,346.388092 618.472290,350.965820 618.112549,355.934143 
M445.682526,294.995850 
	C442.897339,291.051392 440.112152,287.106934 436.859070,282.499817 
	C422.572021,302.684753 409.057098,321.778809 394.829620,341.879547 
	C401.964172,341.879547 407.560272,341.879547 414.197784,341.944763 
	C423.826508,341.962250 433.458923,342.123749 443.080994,341.879547 
	C445.081238,341.828796 447.716705,340.809723 448.902283,339.317535 
	C453.232635,333.867340 457.247131,328.138062 460.967957,322.253021 
	C461.818176,320.908295 461.749390,318.035217 460.857483,316.694489 
	C456.080994,309.514526 450.909973,302.596985 445.682526,294.995850 
z"/>
<path fill="#1B1D3B" opacity="1.000000" stroke="none" 
	d="
M628.741333,420.890625 
	C507.850922,420.890656 387.423859,420.890656 266.996826,420.890656 
	C266.791229,420.506195 266.585602,420.121735 266.379974,419.737274 
	C270.405060,415.679260 274.326721,411.508209 278.538208,407.653870 
	C279.433594,406.834442 281.385132,406.996826 282.850128,406.996460 
	C394.848480,406.969727 506.846832,406.954315 618.844971,407.094574 
	C621.169861,407.097473 623.726624,408.587494 625.764771,409.983154 
	C629.457581,412.511902 632.840515,415.493073 636.352844,418.285370 
	C635.825439,419.153748 635.298035,420.022156 634.770630,420.890564 
	C632.915283,420.890564 631.059998,420.890564 628.741333,420.890625 
z"/>
<path fill="#1B1933" opacity="1.000000" stroke="none" 
	d="
M291.000305,162.580429 
	C405.792206,162.580383 520.084106,162.580383 634.552917,162.580383 
	C631.327820,170.551086 623.008789,176.357605 615.264709,176.357605 
	C506.114594,176.357635 396.964386,176.298798 287.814667,176.503510 
	C281.254547,176.515808 276.220276,175.199112 272.326263,169.834473 
	C270.781555,167.706436 268.719971,165.953598 267.067841,162.580475 
	C274.878662,162.580475 282.689484,162.580475 291.000305,162.580429 
z"/>
<path fill="#8899B5" opacity="1.000000" stroke="none" 
	d="
M283.106995,212.800140 
	C315.170837,212.377487 347.152496,212.313461 379.133453,212.428772 
	C393.147034,212.479324 402.388885,221.908478 401.940552,235.252563 
	C401.555237,246.722717 392.531311,255.795303 381.049255,255.833420 
	C348.735107,255.940674 316.420441,255.896240 283.653595,255.918121 
	C283.144165,251.314987 283.087097,246.705322 283.565033,241.653107 
	C315.045166,241.218903 345.990295,241.234283 376.935425,241.217773 
	C378.754181,241.216812 381.105255,241.619003 382.274994,240.675751 
	C384.380432,238.978012 386.937469,236.493927 387.121857,234.165390 
	C387.283630,232.122910 384.768951,229.472458 382.822388,227.809250 
	C381.675507,226.829300 379.332794,227.067734 377.527618,227.066345 
	C346.083466,227.042068 314.639252,227.065582 283.195068,227.078674 
	C283.138214,222.462997 283.081360,217.847321 283.106995,212.800140 
z"/>
<path fill="#899BB8" opacity="1.000000" stroke="none" 
	d="
M283.050507,356.684143 
	C336.492065,356.209534 389.873016,356.181793 443.253937,356.141174 
	C446.744995,356.138519 450.235962,356.036926 454.165405,355.961487 
	C466.100006,356.013062 477.596252,356.074585 489.092224,356.166931 
	C490.752655,356.180267 492.480194,356.078613 494.057800,356.488098 
	C497.628082,357.414795 499.983215,359.709106 499.881470,363.587860 
	C499.776672,367.583588 497.585632,370.167236 493.561249,370.753296 
	C491.434265,371.063019 489.238922,370.948608 487.074463,370.949280 
	C419.415344,370.970093 351.756226,370.981445 283.643982,371.005005 
	C283.123840,366.386536 283.056854,361.757324 283.050507,356.684143 
z"/>
<path fill="#1B1E3B" opacity="1.000000" stroke="none" 
	d="
M640.874573,178.873749 
	C642.257751,176.786789 643.392761,174.953857 644.527832,173.120926 
	C645.143860,173.610565 645.759827,174.100204 646.375854,174.589844 
	C646.375854,252.557724 646.375854,330.525604 646.375854,409.949219 
	C640.427368,402.786835 632.683777,399.339783 632.764282,388.604462 
	C633.241882,324.971619 633.141357,261.332672 632.818054,197.697937 
	C632.778442,189.892990 634.277039,183.753876 640.874573,178.873749 
z"/>
<path fill="#1B1E3C" opacity="1.000000" stroke="none" 
	d="
M255.076355,230.000000 
	C255.076355,211.253632 255.076355,193.007263 255.076355,174.251495 
	C259.814423,178.686630 264.098724,182.488647 268.075867,186.588638 
	C268.911682,187.450272 268.816345,189.406982 268.817078,190.859253 
	C268.850342,257.982330 268.875244,325.105499 268.728027,392.228271 
	C268.722900,394.577026 267.442627,397.313690 265.916809,399.184631 
	C263.002228,402.758453 259.481781,405.838135 255.076340,410.264862 
	C255.076340,349.445709 255.076340,289.972839 255.076355,230.000000 
z"/>
<path fill="#1B1A36" opacity="1.000000" stroke="none" 
	d="
M405.528809,131.526749 
	C420.419250,114.491287 435.309692,97.455818 450.799438,79.734711 
	C466.194366,97.160515 481.146790,114.085472 496.094971,131.470581 
	C496.090729,131.930740 495.855225,132.226318 495.701172,132.339905 
	C495.365570,132.635223 495.183441,132.816330 495.000702,132.996811 
	C473.273193,133.079254 451.545746,133.173264 429.818176,133.237656 
	C422.518585,133.259277 415.218781,133.205521 407.312805,132.941284 
	C406.523071,132.487015 406.317505,132.302292 405.950775,131.987244 
	C405.811676,131.832306 405.528809,131.526749 405.528809,131.526749 
z"/>
<path fill="#1E3D73" opacity="1.000000" stroke="none" 
	d="
M283.133057,227.535889 
	C314.639252,227.065582 346.083466,227.042068 377.527618,227.066345 
	C379.332794,227.067734 381.675507,226.829300 382.822388,227.809250 
	C384.768951,229.472458 387.283630,232.122910 387.121857,234.165390 
	C386.937469,236.493927 384.380432,238.978012 382.274994,240.675751 
	C381.105255,241.619003 378.754181,241.216812 376.935425,241.217773 
	C345.990295,241.234283 315.045166,241.218903 283.647461,241.205872 
	C283.153595,236.798492 283.112305,232.395798 283.133057,227.535889 
z"/>
<path fill="#8898B5" opacity="1.000000" stroke="none" 
	d="
M283.096100,270.331055 
	C302.661163,269.882507 322.136536,269.888367 341.611755,269.939819 
	C343.595306,269.945038 345.672150,269.901337 347.541077,270.445648 
	C351.103424,271.483215 353.197601,273.983307 352.874451,277.865112 
	C352.556976,281.679047 350.356140,283.941895 346.519745,284.380798 
	C344.707947,284.588104 342.866028,284.584381 341.037659,284.586243 
	C322.061554,284.605591 303.085449,284.606628 283.657593,284.613739 
	C283.139343,280.009247 283.072845,275.403809 283.096100,270.331055 
z"/>
<path fill="#8B9BB7" opacity="1.000000" stroke="none" 
	d="
M618.735168,269.817749 
	C599.830566,270.261108 581.026978,270.228119 562.223450,270.193665 
	C560.559448,270.190613 558.892273,270.240967 557.231934,270.158264 
	C551.773743,269.886505 548.973145,267.376770 548.998535,262.851135 
	C549.022461,258.586426 551.761292,255.990479 556.849670,255.632034 
	C559.667786,255.433517 562.503784,255.445694 565.331848,255.441406 
	C582.804688,255.414948 600.277527,255.410812 618.190491,255.393005 
	C618.699158,260.038177 618.767700,264.689575 618.735168,269.817749 
z"/>
<path fill="#1B1A36" opacity="1.000000" stroke="none" 
	d="
M406.003052,132.977783 
	C405.680237,132.635101 405.357422,132.292419 405.281708,131.738251 
	C405.528809,131.526749 405.811676,131.832306 405.926697,132.195312 
	C406.041687,132.558319 406.003052,132.977768 406.003052,132.977783 
z"/>
<path fill="#1B1021" opacity="1.000000" stroke="none" 
	d="
M406.250916,133.038422 
	C406.003052,132.977768 406.041687,132.558319 406.065796,132.350250 
	C406.317505,132.302292 406.523071,132.487015 406.852478,132.845673 
	C406.831909,133.029678 406.665344,133.064377 406.250916,133.038422 
z"/>
<path fill="#1B1A36" opacity="1.000000" stroke="none" 
	d="
M496.210327,131.784454 
	C496.416809,132.077332 496.503723,132.516479 496.256958,132.772797 
	C495.923340,132.589966 495.855225,132.226318 495.855225,132.226318 
	C495.855225,132.226318 496.090729,131.930740 496.210327,131.784454 
z"/>
<path fill="#1B1021" opacity="1.000000" stroke="none" 
	d="
M495.701172,132.339905 
	C495.855225,132.226318 495.923340,132.589966 495.958374,132.771606 
	C495.829742,133.000504 495.666046,133.047745 495.251526,133.045898 
	C495.183441,132.816330 495.365570,132.635223 495.701172,132.339905 
z"/>
<path fill="#8899B5" opacity="1.000000" stroke="none" 
	d="
M537.141785,299.122864 
	C533.174866,294.427551 529.704895,289.704468 526.141479,284.675659 
	C542.317078,284.331726 558.586426,284.222992 574.854980,284.291626 
	C580.929871,284.317261 583.956604,287.063324 583.885620,291.883362 
	C583.818115,296.467010 580.546326,299.006500 574.495605,299.031189 
	C562.210083,299.081268 549.924438,299.076935 537.141785,299.122864 
z"/>
<path fill="#1D3E74" opacity="1.000000" stroke="none" 
	d="
M445.875305,295.588806 
	C450.909973,302.596985 456.080994,309.514526 460.857483,316.694489 
	C461.749390,318.035217 461.818176,320.908295 460.967957,322.253021 
	C457.247131,328.138062 453.232635,333.867340 448.902283,339.317535 
	C447.716705,340.809723 445.081238,341.828796 443.080994,341.879547 
	C433.458923,342.123749 423.826508,341.962250 413.828491,341.567719 
	C424.264587,325.990051 435.069977,310.789429 445.875305,295.588806 
z"/>
<path fill="#899BB8" opacity="1.000000" stroke="none" 
	d="
M445.778931,295.292328 
	C435.069977,310.789429 424.264587,325.990051 413.307800,341.535095 
	C407.560272,341.879547 401.964172,341.879547 394.829620,341.879547 
	C409.057098,321.778809 422.572021,302.684753 436.859070,282.499817 
	C440.112152,287.106934 442.897339,291.051392 445.778931,295.292328 
z"/>
</svg>