<svg xmlns="http://www.w3.org/2000/svg" viewBox="0 0 900 600" xml:space="preserve"><path fill="#4D792D" d="M655 601H1V1h900v600H655m-321.124-73.87c4.322.204 8.642.573 12.964.587 60.08.194 120.16.418 180.24.439 13.971.005 27.942-.725 42.308-1.011.533-.072 1.066-.143 2.489-.232 15.614-.891 30.773-3.672 44.81-10.976 20.345-10.588 30.995-28.583 35.945-49.893 4.167-17.938 6.572-36.296 9.482-54.512 3.33-20.847 6.51-41.72 9.475-62.622 4.538-31.975 10.037-63.866 9.344-96.355-.25-11.666-2.775-22.816-7.709-33.36-7.554-16.144-20.408-26.497-36.849-32.544-4.385-1.613-6.635-3.796-7.336-8.677-.867-6.03-2.332-12.17-4.735-17.747-6.868-15.94-18.898-26.79-35.083-32.936-2.882-1.095-3.945-2.583-4.366-5.708-.703-5.223-1.552-10.677-3.71-15.41-10.662-23.39-29.362-35.54-54.846-35.766-50.16-.445-100.33-.387-150.493-.035-28.73.202-50.829 16.95-57.907 44.65-2.144 8.391-5.866 12.379-13.125 16.193-18.535 9.74-29.519 25.473-31.929 46.54-.55 4.806-2.538 7.21-7.06 8.817-27.152 9.651-40.22 30.5-44.613 57.704-2.324 14.39-.929 28.825.966 43.209 3.412 25.895 6.475 51.838 10.03 77.714 2.735 19.912 5.686 39.805 9.13 59.604 2.767 15.903 5.57 31.887 9.896 47.407 5.065 18.171 15.153 33.42 32.308 42.722 14.764 8.005 30.799 11.455 47.89 12.153.54-.012 1.08-.023 2.484.046z"/><path fill="#1C274C" d="M568.993 527.039c-13.97.392-27.942 1.122-41.913 1.117-60.08-.02-120.16-.245-180.24-.44-4.322-.013-8.642-.382-13.589-.698-1.164-.103-1.703-.093-2.241-.083-16.71-.548-32.744-3.998-47.508-12.003-17.155-9.302-27.243-24.551-32.308-42.722-4.326-15.52-7.129-31.504-9.895-47.407-3.445-19.799-6.396-39.692-9.132-59.604-3.554-25.876-6.617-51.819-10.029-77.714-1.895-14.384-3.29-28.82-.966-43.209 4.393-27.203 17.461-48.053 44.613-57.704 4.522-1.607 6.51-4.01 7.06-8.817 2.41-21.067 13.394-36.8 31.93-46.54 7.258-3.814 10.98-7.802 13.124-16.193 7.078-27.7 29.176-44.448 57.907-44.65 50.162-.352 100.332-.41 150.493.035 25.484.226 44.184 12.377 54.846 35.766 2.158 4.733 3.007 10.187 3.71 15.41.42 3.125 1.484 4.613 4.366 5.708 16.185 6.147 28.215 16.996 35.083 32.936 2.403 5.578 3.868 11.717 4.735 17.747.701 4.88 2.951 7.064 7.336 8.677 16.44 6.047 29.295 16.4 36.85 32.544 4.933 10.544 7.459 21.694 7.708 33.36.693 32.489-4.806 64.38-9.344 96.355-2.966 20.901-6.146 41.775-9.475 62.622-2.91 18.216-5.315 36.574-9.482 54.512-4.95 21.31-15.6 39.305-35.945 49.893-14.037 7.304-29.196 10.085-45.454 10.935-1.175.028-1.707.097-2.24.167m14.692-348.87c1.786.265 3.57.53 6.202.784 6.417-.116 7.422-1.708 4.596-7.313-.374-.742-.815-1.454-1.268-2.152-6.611-10.174-16.316-14.21-28.09-14.201-19.494.013-38.986-.016-58.479-.017-55.646-.002-111.292.003-166.938-.001-7.568 0-15.086.392-21.587 4.865-6.097 4.195-11.084 9.28-12.42 17.674 2.233.113 3.847.3 5.455.26 13.642-.335 27.282-.988 40.923-1.027 55.646-.156 111.292-.222 166.938-.119 21.32.04 42.638.623 64.668 1.247m-37.188 30.76c-83.909 1.06-167.87-2.959-251.735 2.98-25.349 1.796-40.088 15.591-41.714 40.804-.193 2.99-.376 6.016-.137 8.991 1.188 14.735 2.144 29.503 3.883 44.176 2.819 23.786 5.858 47.555 9.407 71.24 3.671 24.494 7.976 48.894 12.209 73.299.849 4.894 2.465 9.68 4 14.427 5.162 15.95 16.2 25.439 32.638 27.986 10.473 1.622 21.118 2.923 31.693 2.974 66.82.32 133.641.418 200.46.17 13.083-.05 26.234-1.38 39.219-3.118 17.163-2.298 28.436-12.315 33.448-28.943 2.058-6.827 3.982-13.762 5.125-20.786 2.968-18.237 5.456-36.553 8.16-54.834 3.405-23.013 7.018-45.998 10.188-69.044 2.129-15.478 4.367-31.003 5.19-46.58.582-11.026-.526-22.254-2.001-33.241-1.075-8.01-5.739-15.014-13.048-18.64-7.508-3.725-15.64-7.538-23.792-8.35-20.644-2.054-41.453-2.448-63.193-3.51M358.555 107.984c-2.275 2.636-4.924 5.039-6.746 7.957-3.826 6.126-2.811 7.766 4.328 7.77 29.665.02 59.33.011 88.994.01 33.831 0 67.662.01 101.494-.018 6.08-.005 7.03-1.441 4.152-6.713-5.328-9.761-13.628-14.795-24.82-14.798-49.997-.013-99.993.004-149.99-.016-6.208-.003-11.83 1.676-17.412 5.808z"/><path fill="#2E4642" d="M331.2 527.01c.348-.085.887-.095 1.618-.033-.347.085-.886.096-1.617.033zM569.19 527.092c.336-.123.868-.192 1.598-.212-.334.122-.867.193-1.597.212z"/><path fill="#4D792D" d="M546.996 208.931c21.241 1.061 42.05 1.455 62.694 3.51 8.153.811 16.284 4.624 23.792 8.348 7.31 3.627 11.973 10.63 13.048 18.64 1.475 10.988 2.583 22.216 2 33.243-.822 15.576-3.06 31.1-5.189 46.58-3.17 23.045-6.783 46.03-10.188 69.043-2.704 18.281-5.192 36.597-8.16 54.834-1.143 7.024-3.067 13.959-5.125 20.786-5.012 16.628-16.285 26.645-33.448 28.943-12.985 1.739-26.136 3.069-39.218 3.117-66.82.25-133.642.152-200.46-.17-10.576-.05-21.22-1.35-31.694-2.973-16.438-2.547-27.476-12.036-32.637-27.986-1.536-4.747-3.152-9.533-4.001-14.427-4.233-24.405-8.538-48.805-12.209-73.298-3.55-23.686-6.588-47.455-9.407-71.24-1.739-14.674-2.695-29.442-3.883-44.177-.24-2.975-.056-6.001.137-8.991 1.626-25.213 16.365-39.008 41.714-40.804 83.865-5.939 167.826-1.92 252.234-2.978m-145.65 72.92c-6.36 7.01-9.097 15.4-9.219 24.708-.11 8.494-.05 16.99-.045 25.485.012 21.155.092 42.31.037 63.464-.065 24.804 26.954 45.837 52.347 29.102 22.937-15.116 46.852-28.74 70.034-43.497 22.52-14.336 22.677-46.357.215-60.737-23.704-15.176-47.748-29.831-71.867-44.342-14.485-8.714-28.86-6.54-41.502 5.817zM582.974 177.88c-21.319-.335-42.637-.918-63.957-.958-55.646-.103-111.292-.037-166.938.12-13.641.038-27.281.691-40.923 1.026-1.608.04-3.222-.147-5.455-.26 1.336-8.395 6.323-13.479 12.42-17.674 6.501-4.473 14.02-4.866 21.587-4.865 55.646.004 111.292 0 166.938.001 19.493.001 38.985.03 58.478.017 11.775-.008 21.48 4.027 28.09 14.201.454.698.895 1.41 1.269 2.152 2.826 5.605 1.82 7.197-5.282 7.142-2.533-.414-4.38-.658-6.227-.902zM358.843 107.765c5.293-3.912 10.916-5.591 17.124-5.588 49.997.02 99.993.003 149.99.016 11.192.003 19.492 5.037 24.82 14.798 2.877 5.272 1.929 6.708-4.152 6.713-33.832.029-67.663.018-101.494.019-29.665 0-59.33.008-88.994-.01-7.139-.005-8.154-1.645-4.328-7.77 1.822-2.92 4.471-5.322 7.034-8.178z"/><path fill="#2D4444" d="M583.33 178.025c1.491.1 3.338.343 5.448.762-1.522-.088-3.307-.353-5.448-.762z"/><path fill="#1C284C" d="M401.589 281.59c12.4-12.096 26.774-14.27 41.26-5.556 24.118 14.51 48.162 29.166 71.866 44.342 22.462 14.38 22.304 46.401-.215 60.737-23.182 14.756-47.097 28.38-70.034 43.497-25.393 16.735-52.412-4.298-52.347-29.102.055-21.154-.025-42.31-.037-63.464-.004-8.495-.066-16.991.045-25.485.122-9.308 2.859-17.699 9.462-24.969m45.365 103.852c16.02-9.858 32.062-19.683 48.05-29.593 5.393-3.343 5.527-6.969.247-10.247-21.92-13.61-43.898-27.13-65.898-40.612-3.757-2.303-5.128-1.58-5.141 2.885-.084 28.467-.087 56.934.007 85.401.015 4.681 1.359 5.27 5.537 2.77 5.57-3.333 11.053-6.814 17.198-10.604z"/><path fill="#4D782D" d="M446.641 385.629c-5.832 3.603-11.315 7.084-16.885 10.417-4.178 2.5-5.522 1.911-5.537-2.77-.094-28.467-.09-56.934-.007-85.4.013-4.465 1.384-5.189 5.141-2.886 22 13.482 43.978 27.001 65.898 40.612 5.28 3.278 5.146 6.904-.247 10.247-15.988 9.91-32.03 19.735-48.363 29.78z"/></svg>