<svg xmlns="http://www.w3.org/2000/svg" viewBox="0 0 900 600" xml:space="preserve"><path fill="#817979" d="M620 601H1V1h900v600H620M466.5 89.888c-73.66 0-147.32-.01-220.98.008-18.568.005-30.52 11.8-30.614 30.138-.04 7.999-.01 15.998-.01 23.997 0 94.159-.014 188.317.048 282.476.002 3.902-.15 6.232-5.309 6.65-9.571.777-15.643 8.395-15.664 18.123-.028 12.999-.053 25.998.008 38.997.053 11.095 7.454 18.548 18.465 18.55 159.32.016 318.64.015 477.959.003 10.028-.001 17.352-6.672 17.542-16.58.272-14.16.227-28.333-.013-42.494-.137-8.08-5.217-15.365-12.398-16.108-6.732-.697-6.707-4.124-6.703-9.166.094-100.825.083-201.65.06-302.474-.006-21.303-10.811-32.119-31.907-32.12-63.162-.002-126.323 0-190.484 0z"/><path fill="#010101" d="M467 89.888c63.661 0 126.822-.002 189.984 0 21.096.001 31.901 10.817 31.906 32.12.024 100.825.035 201.65-.059 302.474-.004 5.042-.03 8.47 6.703 9.166 7.181.743 12.261 8.028 12.398 16.108.24 14.161.285 28.334.013 42.493-.19 9.91-7.514 16.58-17.542 16.58-159.32.013-318.64.014-477.959-.003-11.01 0-18.412-7.454-18.465-18.55-.061-12.998-.036-25.997-.008-38.996.02-9.728 6.093-17.346 15.664-18.122 5.16-.419 5.311-2.749 5.309-6.651-.062-94.159-.049-188.317-.048-282.476 0-7.999-.03-15.998.01-23.997.094-18.338 12.046-30.133 30.614-30.138 73.66-.018 147.32-.008 221.48-.008M266.95 332.5c0 29.49-.003 58.979.002 88.468 0 6.673.012 6.683 6.9 6.683 118.792.002 237.583.003 356.374 0 6.543 0 6.555-.014 6.555-6.507.003-91.135.003-182.269 0-273.403 0-6.415-.013-6.425-6.63-6.425-118.791-.002-237.582-.002-356.373 0-6.816 0-6.826.01-6.827 6.75-.002 61.144-.001 122.29-.001 184.434m309.765 151.817c6.04-5.596 7.806-11.973 5.19-18.753-2.383-6.18-8.392-10.334-15.076-10.422-6.506-.086-12.693 3.967-15.369 10.067-2.72 6.202-1.094 13.535 4.038 18.21 5.977 5.446 12.356 5.858 21.217.898m54.782-28.506c-10.856-2.184-20.264 4.858-20.419 15.285-.125 8.435 6.29 15.74 14.709 16.753 7.722.93 15.554-4.578 17.58-12.362 2.195-8.435-2.147-16.063-11.87-19.676z"/><path fill="#807878" d="M266.949 332c0-61.645-.001-122.79.001-183.935 0-6.74.01-6.749 6.827-6.749 118.79-.002 237.582-.002 356.373 0 6.617 0 6.63.01 6.63 6.425.003 91.134.003 182.268 0 273.403 0 6.493-.012 6.507-6.555 6.507-118.791.003-237.582.002-356.373 0-6.89 0-6.9-.01-6.901-6.683-.005-29.49-.002-58.979-.002-88.968M485.5 391.046c21.5 0 42.998.024 64.498-.029 2.987-.007 6.051-.034 8.945-.67 9.693-2.127 16.578-7.826 19.475-17.411 2.978-9.857.905-18.767-6.503-26.211-6.116-6.144-13.74-7.463-22.031-7.453-65.998.083-131.995.043-197.992.06-2.33 0-4.664.132-6.987.315-14.233 1.123-25.092 15.14-22.702 29.268 2.312 13.66 12.762 22.088 27.802 22.107 44.832.059 89.663.023 135.495.024m4.549-170.587c-19.537-12.707-39.11-25.357-58.584-38.16-4.667-3.07-9.418-4.459-14.533-1.83-5.156 2.652-6.832 7.506-6.837 12.978-.033 35.465-.105 70.931.025 106.396.048 13.06 10.203 18.705 21.097 11.69a9349.454 9349.454 0 0 0 80.767-52.6c9.916-6.53 9.78-17.476-.024-24.12-7.027-4.763-14.198-9.312-21.911-14.354z"/><path fill="#7E7676" d="M576.418 484.535c-8.565 4.742-14.944 4.33-20.921-1.116-5.132-4.675-6.758-12.008-4.038-18.21 2.676-6.1 8.863-10.153 15.37-10.067 6.683.088 12.692 4.242 15.075 10.422 2.616 6.78.85 13.157-5.486 18.971zM631.883 455.902c9.336 3.522 13.678 11.15 11.483 19.585-2.026 7.784-9.858 13.291-17.58 12.362-8.42-1.013-14.834-8.318-14.709-16.753.155-10.427 9.563-17.47 20.806-15.194z"/><path fill="#010101" d="M485 391.046c-45.332-.001-90.163.035-134.995-.024-15.04-.02-25.49-8.447-27.802-22.107-2.39-14.128 8.469-28.145 22.702-29.268 2.323-.183 4.658-.315 6.987-.315 65.997-.017 131.994.023 197.992-.06 8.29-.01 15.915 1.309 22.03 7.453 7.41 7.444 9.482 16.354 6.504 26.21-2.897 9.586-9.782 15.285-19.475 17.413-2.894.635-5.958.662-8.945.67-21.5.052-42.999.028-64.998.028zM490.352 220.658c7.41 4.843 14.581 9.392 21.608 14.155 9.803 6.644 9.94 17.59.024 24.12a9349.454 9349.454 0 0 1-80.767 52.6c-10.894 7.015-21.049 1.37-21.097-11.69-.13-35.465-.058-70.93-.025-106.396.005-5.472 1.681-10.326 6.837-12.977 5.115-2.63 9.866-1.24 14.533 1.828 19.473 12.804 39.047 25.454 58.887 38.36z"/></svg>